<?xml version="1.0" encoding="UTF-8" standalone="no"?>
<svg xmlns="http://www.w3.org/2000/svg" xmlns:xlink="http://www.w3.org/1999/xlink"
	contentScriptType="application/ecmascript" contentStyleType="text/css"
	height="513px" preserveAspectRatio="none" style="width:358px;height:513px;"
	version="1.1" viewBox="0 0 358 513" width="358px" zoomAndPan="magnify">
	<defs>
		<filter height="300%" id="f1540m4u8gg026" width="300%" x="-1"
			y="-1">
			<feGaussianBlur result="blurOut" stdDeviation="2.0" />
			<feColorMatrix in="blurOut" result="blurOut2" type="matrix"
				values="0 0 0 0 0 0 0 0 0 0 0 0 0 0 0 0 0 0 .4 0" />
			<feOffset dx="4.0" dy="4.0" in="blurOut2" result="blurOut3" />
			<feBlend in="SourceGraphic" in2="blurOut3" mode="normal" />
		</filter>
	</defs>
	<g>
		<text fill="#000000" font-family="sans-serif" font-size="18"
			lengthAdjust="spacingAndGlyphs" textLength="238" x="56" y="26.708">Circular
			Doubly Linked List</text>
		<text fill="#000000" font-family="sans-serif" font-size="18"
			lengthAdjust="spacingAndGlyphs" textLength="135" x="110.5" y="47.6611">(Delete
			at End)</text>
		<text fill="#000000" font-family="sans-serif" font-size="18"
			lengthAdjust="spacingAndGlyphs" textLength="0" x="181" y="68.6143" />
		<ellipse cx="215.25" cy="82.8594" fill="#000000" filter="url(#f1540m4u8gg026)"
			rx="10" ry="10" style="stroke: none; stroke-width: 1.0;" />
		<polygon fill="#FEFECE" filter="url(#f1540m4u8gg026)"
			points="155.25,112.8594,275.25,112.8594,287.25,124.8594,275.25,136.8594,155.25,136.8594,143.25,124.8594,155.25,112.8594"
			style="stroke: #A80036; stroke-width: 1.5;" />
		<text fill="#000000" font-family="sans-serif" font-size="11"
			lengthAdjust="spacingAndGlyphs" textLength="120" x="155.25" y="128.6675">Is
			head.next != null ?</text>
		<text fill="#000000" font-family="sans-serif" font-size="11"
			lengthAdjust="spacingAndGlyphs" textLength="20" x="123.25" y="122.2651">yes
		</text>
		<text fill="#000000" font-family="sans-serif" font-size="11"
			lengthAdjust="spacingAndGlyphs" textLength="14" x="287.25" y="122.2651">no
		</text>
		<rect fill="#FEFECE" filter="url(#f1540m4u8gg026)" height="33.9688"
			rx="12.5" ry="12.5" style="stroke: #A80036; stroke-width: 1.5;"
			width="133" x="59.5" y="146.8594" />
		<text fill="#000000" font-family="sans-serif" font-size="12"
			lengthAdjust="spacingAndGlyphs" textLength="113" x="69.5" y="167.998">temp =
			head.next</text>
		<rect fill="#FEFECE" filter="url(#f1540m4u8gg026)" height="33.9688"
			rx="12.5" ry="12.5" style="stroke: #A80036; stroke-width: 1.5;"
			width="133" x="59.5" y="244.8281" />
		<text fill="#000000" font-family="sans-serif" font-size="12"
			lengthAdjust="spacingAndGlyphs" textLength="113" x="69.5" y="265.9668">temp =
			temp.next</text>
		<polygon fill="#FEFECE" filter="url(#f1540m4u8gg026)"
			points="126,200.8281,138,212.8281,126,224.8281,114,212.8281,126,200.8281"
			style="stroke: #A80036; stroke-width: 1.5;" />
		<polygon fill="#FEFECE" filter="url(#f1540m4u8gg026)"
			points="73.5,298.7969,178.5,298.7969,190.5,310.7969,178.5,322.7969,73.5,322.7969,61.5,310.7969,73.5,298.7969"
			style="stroke: #A80036; stroke-width: 1.5;" />
		<text fill="#000000" font-family="sans-serif" font-size="11"
			lengthAdjust="spacingAndGlyphs" textLength="105" x="73.5" y="314.605">temp.next
			!= head</text>
		<rect fill="#FEFECE" filter="url(#f1540m4u8gg026)" height="89.8438"
			rx="12.5" ry="12.5" style="stroke: #A80036; stroke-width: 1.5;"
			width="232" x="10" y="342.7969" />
		<text fill="#000000" font-family="sans-serif" font-size="12"
			lengthAdjust="spacingAndGlyphs" textLength="0" x="24" y="363.9355" />
		<text fill="#000000" font-family="sans-serif" font-size="12"
			lengthAdjust="spacingAndGlyphs" textLength="170" x="36" y="377.9043">temp.previous.next
			= head</text>
		<text fill="#000000" font-family="sans-serif" font-size="12"
			lengthAdjust="spacingAndGlyphs" textLength="196" x="36" y="391.873">head.previous
			= temp.previous</text>
		<text fill="#000000" font-family="sans-serif" font-size="12"
			lengthAdjust="spacingAndGlyphs" textLength="75" x="36" y="405.8418">return temp
		</text>
		<text fill="#000000" font-family="sans-serif" font-size="12"
			lengthAdjust="spacingAndGlyphs" textLength="0" x="24" y="419.8105" />
		<rect fill="#FEFECE" filter="url(#f1540m4u8gg026)" height="33.9688"
			rx="12.5" ry="12.5" style="stroke: #A80036; stroke-width: 1.5;"
			width="85" x="262" y="146.8594" />
		<text fill="#000000" font-family="sans-serif" font-size="12"
			lengthAdjust="spacingAndGlyphs" textLength="65" x="272" y="167.998">return null
		</text>
		<polygon fill="#FEFECE" filter="url(#f1540m4u8gg026)"
			points="215.25,438.6406,227.25,450.6406,215.25,462.6406,203.25,450.6406,215.25,438.6406"
			style="stroke: #A80036; stroke-width: 1.5;" />
		<ellipse cx="215.25" cy="492.6406" fill="none" filter="url(#f1540m4u8gg026)"
			rx="10" ry="10" style="stroke: #000000; stroke-width: 1.0;" />
		<ellipse cx="215.75" cy="493.1406" fill="#000000" filter="url(#f1540m4u8gg026)"
			rx="6" ry="6" style="stroke: none; stroke-width: 1.0;" />
		<line style="stroke: #A80036; stroke-width: 1.5;" x1="126" x2="126"
			y1="224.8281" y2="244.8281" />
		<polygon fill="#A80036"
			points="122,234.8281,126,244.8281,130,234.8281,126,238.8281" style="stroke: #A80036; stroke-width: 1.0;" />
		<line style="stroke: #A80036; stroke-width: 1.5;" x1="190.5" x2="204.5"
			y1="310.7969" y2="310.7969" />
		<polygon fill="#A80036"
			points="200.5,271.8125,204.5,261.8125,208.5,271.8125,204.5,267.8125"
			style="stroke: #A80036; stroke-width: 1.5;" />
		<line style="stroke: #A80036; stroke-width: 1.5;" x1="204.5" x2="204.5"
			y1="212.8281" y2="310.7969" />
		<line style="stroke: #A80036; stroke-width: 1.5;" x1="204.5" x2="138"
			y1="212.8281" y2="212.8281" />
		<polygon fill="#A80036"
			points="148,208.8281,138,212.8281,148,216.8281,144,212.8281" style="stroke: #A80036; stroke-width: 1.0;" />
		<line style="stroke: #A80036; stroke-width: 1.5;" x1="126" x2="126"
			y1="278.7969" y2="298.7969" />
		<polygon fill="#A80036"
			points="122,288.7969,126,298.7969,130,288.7969,126,292.7969" style="stroke: #A80036; stroke-width: 1.0;" />
		<line style="stroke: #A80036; stroke-width: 1.5;" x1="126" x2="126"
			y1="180.8281" y2="200.8281" />
		<polygon fill="#A80036"
			points="122,190.8281,126,200.8281,130,190.8281,126,194.8281" style="stroke: #A80036; stroke-width: 1.0;" />
		<line style="stroke: #A80036; stroke-width: 1.5;" x1="126" x2="126"
			y1="322.7969" y2="342.7969" />
		<polygon fill="#A80036"
			points="122,332.7969,126,342.7969,130,332.7969,126,336.7969" style="stroke: #A80036; stroke-width: 1.0;" />
		<line style="stroke: #A80036; stroke-width: 1.5;" x1="143.25" x2="126"
			y1="124.8594" y2="124.8594" />
		<line style="stroke: #A80036; stroke-width: 1.5;" x1="126" x2="126"
			y1="124.8594" y2="146.8594" />
		<polygon fill="#A80036"
			points="122,136.8594,126,146.8594,130,136.8594,126,140.8594" style="stroke: #A80036; stroke-width: 1.0;" />
		<line style="stroke: #A80036; stroke-width: 1.5;" x1="287.25" x2="304.5"
			y1="124.8594" y2="124.8594" />
		<line style="stroke: #A80036; stroke-width: 1.5;" x1="304.5" x2="304.5"
			y1="124.8594" y2="146.8594" />
		<polygon fill="#A80036"
			points="300.5,136.8594,304.5,146.8594,308.5,136.8594,304.5,140.8594"
			style="stroke: #A80036; stroke-width: 1.0;" />
		<line style="stroke: #A80036; stroke-width: 1.5;" x1="126" x2="126"
			y1="432.6406" y2="450.6406" />
		<line style="stroke: #A80036; stroke-width: 1.5;" x1="126" x2="203.25"
			y1="450.6406" y2="450.6406" />
		<polygon fill="#A80036"
			points="193.25,446.6406,203.25,450.6406,193.25,454.6406,197.25,450.6406"
			style="stroke: #A80036; stroke-width: 1.0;" />
		<line style="stroke: #A80036; stroke-width: 1.5;" x1="304.5" x2="304.5"
			y1="180.8281" y2="450.6406" />
		<line style="stroke: #A80036; stroke-width: 1.5;" x1="304.5" x2="227.25"
			y1="450.6406" y2="450.6406" />
		<polygon fill="#A80036"
			points="237.25,446.6406,227.25,450.6406,237.25,454.6406,233.25,450.6406"
			style="stroke: #A80036; stroke-width: 1.0;" />
		<line style="stroke: #A80036; stroke-width: 1.5;" x1="215.25" x2="215.25"
			y1="92.8594" y2="112.8594" />
		<polygon fill="#A80036"
			points="211.25,102.8594,215.25,112.8594,219.25,102.8594,215.25,106.8594"
			style="stroke: #A80036; stroke-width: 1.0;" />
		<line style="stroke: #A80036; stroke-width: 1.5;" x1="215.25" x2="215.25"
			y1="462.6406" y2="482.6406" />
		<polygon fill="#A80036"
			points="211.25,472.6406,215.25,482.6406,219.25,472.6406,215.25,476.6406"
			style="stroke: #A80036; stroke-width: 1.0;" />
<!--
@startuml
title Circular Doubly Linked List \n(Delete at End)\n

start

if (Is head.next != null ?) then (yes)
    :temp = head.next;
    repeat
        :temp = temp.next;
    repeat while(temp.next != head)
    :
        temp.previous.next = head
        head.previous = temp.previous
        return temp
    ;
else (no)
    :return null;
endif;

stop
@enduml

PlantUML version 1.2019.00(Sun Jan 13 15:46:42 UTC 2019)
(GPL source distribution)
Java Runtime: Java(TM) SE Runtime Environment
JVM: Java HotSpot(TM) 64-Bit Server VM
Java Version: 1.7.0_25-b15
Operating System: Linux
Default Encoding: UTF-8
Language: en
Country: US
--></g></svg>