<?xml version="1.0" encoding="UTF-8" standalone="no"?>
<svg xmlns="http://www.w3.org/2000/svg" xmlns:xlink="http://www.w3.org/1999/xlink"
	contentScriptType="application/ecmascript" contentStyleType="text/css"
	height="478px" preserveAspectRatio="none" style="width:441px;height:478px;"
	version="1.1" viewBox="0 0 441 478" width="441px" zoomAndPan="magnify">
	<defs>
		<filter height="300%" id="f1a4cd54yxhxid" width="300%" x="-1"
			y="-1">
			<feGaussianBlur result="blurOut" stsdDeviation="2.0" />
			<feColorMatrix in="blurOut" result="blurOut2" type="matrix"
				values="0 0 0 0 0 0 0 0 0 0 0 0 0 0 0 0 0 0 .4 0" />
			<feOffset dx="4.0" dy="4.0" in="blurOut2" result="blurOut3" />
			<feBlend in="SourceGraphic" in2="blurOut3" mode="normal" />
		</filter>
	</defs>
	<g>
		<text fill="#000000" font-family="sans-serif" font-size="18"
			lengthAdjust="spacingAndGlyphs" textLength="238" x="97.5" y="26.708">Circular
			Doubly Linked List</text>
		<text fill="#000000" font-family="sans-serif" font-size="18"
			lengthAdjust="spacingAndGlyphs" textLength="148" x="145.5" y="47.6611">(Delete
			at Head)</text>
		<text fill="#000000" font-family="sans-serif" font-size="18"
			lengthAdjust="spacingAndGlyphs" textLength="0" x="222.5" y="68.6143" />
		<ellipse cx="215.75" cy="82.8594" fill="#000000" filter="url(#f1a4cd54yxhxid)"
			rx="10" ry="10" style="stroke: none; stroke-width: 1.0;" />
		<rect fill="#FEFECE" filter="url(#f1a4cd54yxhxid)" height="33.9688"
			rx="12.5" ry="12.5" style="stroke: #A80036; stroke-width: 1.5;"
			width="133" x="149.25" y="112.8594" />
		<text fill="#000000" font-family="sans-serif" font-size="12"
			lengthAdjust="spacingAndGlyphs" textLength="113" x="159.25" y="133.998">temp =
			head.next</text>
		<polygon fill="#FEFECE" filter="url(#f1a4cd54yxhxid)"
			points="151.25,215.2305,280.25,215.2305,292.25,227.2305,280.25,239.2305,151.25,239.2305,139.25,227.2305,151.25,215.2305"
			style="stroke: #A80036; stroke-width: 1.5;" />
		<text fill="#000000" font-family="sans-serif" font-size="11"
			lengthAdjust="spacingAndGlyphs" textLength="129" x="151.25" y="231.0386">Is
			temp.next != head ?</text>
		<text fill="#000000" font-family="sans-serif" font-size="11"
			lengthAdjust="spacingAndGlyphs" textLength="20" x="119.25" y="224.6362">yes
		</text>
		<text fill="#000000" font-family="sans-serif" font-size="11"
			lengthAdjust="spacingAndGlyphs" textLength="14" x="292.25" y="224.6362">no
		</text>
		<rect fill="#FEFECE" filter="url(#f1a4cd54yxhxid)" height="75.875"
			rx="12.5" ry="12.5" style="stroke: #A80036; stroke-width: 1.5;"
			width="206" x="10" y="249.2305" />
		<text fill="#000000" font-family="sans-serif" font-size="12"
			lengthAdjust="spacingAndGlyphs" textLength="0" x="24" y="270.3691" />
		<text fill="#000000" font-family="sans-serif" font-size="12"
			lengthAdjust="spacingAndGlyphs" textLength="144" x="36" y="284.3379">head.next =
			temp.next</text>
		<text fill="#000000" font-family="sans-serif" font-size="12"
			lengthAdjust="spacingAndGlyphs" textLength="170" x="36" y="298.3066">temp.next.previous
			= head</text>
		<text fill="#000000" font-family="sans-serif" font-size="12"
			lengthAdjust="spacingAndGlyphs" textLength="0" x="24" y="312.2754" />
		<rect fill="#FEFECE" filter="url(#f1a4cd54yxhxid)" height="103.8125"
			rx="12.5" ry="12.5" style="stroke: #A80036; stroke-width: 1.5;"
			width="165" x="236" y="249.2305" />
		<text fill="#000000" font-family="sans-serif" font-size="12"
			lengthAdjust="spacingAndGlyphs" textLength="0" x="250" y="270.3691" />
		<text fill="#000000" font-family="sans-serif" font-size="12"
			lengthAdjust="spacingAndGlyphs" textLength="103" x="262" y="284.3379">temp.next
			= null</text>
		<text fill="#000000" font-family="sans-serif" font-size="12"
			lengthAdjust="spacingAndGlyphs" textLength="129" x="262" y="298.3066">head.previous
			= null</text>
		<text fill="#000000" font-family="sans-serif" font-size="12"
			lengthAdjust="spacingAndGlyphs" textLength="103" x="262" y="312.2754">head.next
			= null</text>
		<text fill="#000000" font-family="sans-serif" font-size="12"
			lengthAdjust="spacingAndGlyphs" textLength="129" x="262" y="326.2441">temp.previous
			= null</text>
		<text fill="#000000" font-family="sans-serif" font-size="12"
			lengthAdjust="spacingAndGlyphs" textLength="0" x="250" y="340.2129" />
		<polygon fill="#FEFECE" filter="url(#f1a4cd54yxhxid)"
			points="215.75,359.043,227.75,371.043,215.75,383.043,203.75,371.043,215.75,359.043"
			style="stroke: #A80036; stroke-width: 1.5;" />
		<polygon fill="#FEFECE" filter="url(#f1a4cd54yxhxid)"
			points="169.25,166.8281,262.25,166.8281,274.25,178.8281,262.25,190.8281,169.25,190.8281,157.25,178.8281,169.25,166.8281"
			style="stroke: #A80036; stroke-width: 1.5;" />
		<text fill="#000000" font-family="sans-serif" font-size="11"
			lengthAdjust="spacingAndGlyphs" textLength="20" x="219.75" y="201.0386">yes
		</text>
		<text fill="#000000" font-family="sans-serif" font-size="11"
			lengthAdjust="spacingAndGlyphs" textLength="93" x="169.25" y="182.6362">Is temp
			!= null ?</text>
		<polygon fill="#FEFECE" filter="url(#f1a4cd54yxhxid)"
			points="215.75,403.043,227.75,415.043,215.75,427.043,203.75,415.043,215.75,403.043"
			style="stroke: #A80036; stroke-width: 1.5;" />
		<ellipse cx="215.75" cy="457.043" fill="none" filter="url(#f1a4cd54yxhxid)"
			rx="10" ry="10" style="stroke: #000000; stroke-width: 1.0;" />
		<ellipse cx="216.25" cy="457.543" fill="#000000" filter="url(#f1a4cd54yxhxid)"
			rx="6" ry="6" style="stroke: none; stroke-width: 1.0;" />
		<line style="stroke: #A80036; stroke-width: 1.5;" x1="215.75" x2="215.75"
			y1="92.8594" y2="112.8594" />
		<polygon fill="#A80036"
			points="211.75,102.8594,215.75,112.8594,219.75,102.8594,215.75,106.8594"
			style="stroke: #A80036; stroke-width: 1.0;" />
		<line style="stroke: #A80036; stroke-width: 1.5;" x1="139.25" x2="113"
			y1="227.2305" y2="227.2305" />
		<line style="stroke: #A80036; stroke-width: 1.5;" x1="113" x2="113"
			y1="227.2305" y2="249.2305" />
		<polygon fill="#A80036"
			points="109,239.2305,113,249.2305,117,239.2305,113,243.2305" style="stroke: #A80036; stroke-width: 1.0;" />
		<line style="stroke: #A80036; stroke-width: 1.5;" x1="292.25" x2="318.5"
			y1="227.2305" y2="227.2305" />
		<line style="stroke: #A80036; stroke-width: 1.5;" x1="318.5" x2="318.5"
			y1="227.2305" y2="249.2305" />
		<polygon fill="#A80036"
			points="314.5,239.2305,318.5,249.2305,322.5,239.2305,318.5,243.2305"
			style="stroke: #A80036; stroke-width: 1.0;" />
		<line style="stroke: #A80036; stroke-width: 1.5;" x1="113" x2="113"
			y1="325.1055" y2="371.043" />
		<line style="stroke: #A80036; stroke-width: 1.5;" x1="113" x2="203.75"
			y1="371.043" y2="371.043" />
		<polygon fill="#A80036"
			points="193.75,367.043,203.75,371.043,193.75,375.043,197.75,371.043"
			style="stroke: #A80036; stroke-width: 1.0;" />
		<line style="stroke: #A80036; stroke-width: 1.5;" x1="318.5" x2="318.5"
			y1="353.043" y2="371.043" />
		<line style="stroke: #A80036; stroke-width: 1.5;" x1="318.5" x2="227.75"
			y1="371.043" y2="371.043" />
		<polygon fill="#A80036"
			points="237.75,367.043,227.75,371.043,237.75,375.043,233.75,371.043"
			style="stroke: #A80036; stroke-width: 1.0;" />
		<line style="stroke: #A80036; stroke-width: 1.5;" x1="215.75" x2="215.75"
			y1="190.8281" y2="215.2305" />
		<polygon fill="#A80036"
			points="211.75,205.2305,215.75,215.2305,219.75,205.2305,215.75,209.2305"
			style="stroke: #A80036; stroke-width: 1.0;" />
		<line style="stroke: #A80036; stroke-width: 1.5;" x1="274.25" x2="415"
			y1="178.8281" y2="178.8281" />
		<polygon fill="#A80036"
			points="411,289.1367,415,299.1367,419,289.1367,415,293.1367" style="stroke: #A80036; stroke-width: 1.5;" />
		<line style="stroke: #A80036; stroke-width: 1.5;" x1="415" x2="415"
			y1="178.8281" y2="415.043" />
		<line style="stroke: #A80036; stroke-width: 1.5;" x1="415" x2="227.75"
			y1="415.043" y2="415.043" />
		<polygon fill="#A80036"
			points="237.75,411.043,227.75,415.043,237.75,419.043,233.75,415.043"
			style="stroke: #A80036; stroke-width: 1.0;" />
		<line style="stroke: #A80036; stroke-width: 1.5;" x1="215.75" x2="215.75"
			y1="383.043" y2="403.043" />
		<polygon fill="#A80036"
			points="211.75,393.043,215.75,403.043,219.75,393.043,215.75,397.043"
			style="stroke: #A80036; stroke-width: 1.0;" />
		<line style="stroke: #A80036; stroke-width: 1.5;" x1="215.75" x2="215.75"
			y1="146.8281" y2="166.8281" />
		<polygon fill="#A80036"
			points="211.75,156.8281,215.75,166.8281,219.75,156.8281,215.75,160.8281"
			style="stroke: #A80036; stroke-width: 1.0;" />
		<line style="stroke: #A80036; stroke-width: 1.5;" x1="215.75" x2="215.75"
			y1="427.043" y2="447.043" />
		<polygon fill="#A80036"
			points="211.75,437.043,215.75,447.043,219.75,437.043,215.75,441.043"
			style="stroke: #A80036; stroke-width: 1.0;" />
<!--
@startuml
title Circular Doubly Linked List \n(Delete at Head)\n

start

:temp = head.next;

if (Is temp != null ?) then (yes)
    if (Is temp.next != head ?) then (yes)
        :
            head.next = temp.next
            temp.next.previous = head
        ;
    else (no)
        :
            temp.next = null
            head.previous = null
            head.next = null
            temp.previous = null
        ;
    endif;
endif;

stop
@enduml

PlantUML version 1.2019.00(Sun Jan 13 15:46:42 UTC 2019)
(GPL source distribution)
Java Runtime: Java(TM) SE Runtime Environment
JVM: Java HotSpot(TM) 64-Bit Server VM
Java Version: 1.7.0_25-b15
Operating System: Linux
Default Encoding: UTF-8
Language: en
Country: US
--></g></svg>