<?xml version="1.0" encoding="UTF-8" standalone="no"?>
<svg xmlns="http://www.w3.org/2000/svg" xmlns:xlink="http://www.w3.org/1999/xlink"
	contentScriptType="application/ecmascript" contentStyleType="text/css"
	height="607px" preserveAspectRatio="none" style="width:465px;height:607px;"
	version="1.1" viewBox="0 0 465 607" width="465px" zoomAndPan="magnify">
	<defs>
		<filter height="300%" id="fp9otg77lof83" width="300%" x="-1" y="-1">
			<feGaussianBlur result="blurOut" stdDeviation="2.0" />
			<feColorMatrix in="blurOut" result="blurOut2" type="matrix"
				values="0 0 0 0 0 0 0 0 0 0 0 0 0 0 0 0 0 0 .4 0" />
			<feOffset dx="4.0" dy="4.0" in="blurOut2" result="blurOut3" />
			<feBlend in="SourceGraphic" in2="blurOut3" mode="normal" />
		</filter>
	</defs>
	<g>
		<text fill="#000000" font-family="sans-serif" font-size="18"
			lengthAdjust="spacingAndGlyphs" textLength="238" x="109.75" y="26.708">Circular
			Doubly Linked List</text>
		<text fill="#000000" font-family="sans-serif" font-size="18"
			lengthAdjust="spacingAndGlyphs" textLength="127" x="168.25" y="47.6611">(Insert
			at End)</text>
		<text fill="#000000" font-family="sans-serif" font-size="18"
			lengthAdjust="spacingAndGlyphs" textLength="0" x="234.75" y="68.6143" />
		<ellipse cx="230.5" cy="82.8594" fill="#000000" filter="url(#fp9otg77lof83)"
			rx="10" ry="10" style="stroke: none; stroke-width: 1.0;" />
		<rect fill="#FEFECE" filter="url(#fp9otg77lof83)" height="33.9688"
			rx="12.5" ry="12.5" style="stroke: #A80036; stroke-width: 1.5;"
			width="220" x="120.5" y="112.8594" />
		<text fill="#000000" font-family="sans-serif" font-size="12"
			lengthAdjust="spacingAndGlyphs" textLength="119" x="130.5" y="133.998">Create a
			new node</text>
		<text fill="#000000" font-family="sans-serif" font-size="12"
			font-weight="bold" lengthAdjust="spacingAndGlyphs" textLength="77" x="253.5"
			y="133.998">(newNode)</text>
		<polygon fill="#FEFECE" filter="url(#fp9otg77lof83)"
			points="192.5,166.8281,268.5,166.8281,280.5,178.8281,268.5,190.8281,192.5,190.8281,180.5,178.8281,192.5,166.8281"
			style="stroke: #A80036; stroke-width: 1.5;" />
		<text fill="#000000" font-family="sans-serif" font-size="11"
			lengthAdjust="spacingAndGlyphs" textLength="76" x="192.5" y="182.6362">Is list
			empty?</text>
		<text fill="#000000" font-family="sans-serif" font-size="11"
			lengthAdjust="spacingAndGlyphs" textLength="20" x="160.5" y="176.2339">yes
		</text>
		<text fill="#000000" font-family="sans-serif" font-size="11"
			lengthAdjust="spacingAndGlyphs" textLength="14" x="280.5" y="176.2339">no</text>
		<rect fill="#FEFECE" filter="url(#fp9otg77lof83)" height="103.8125"
			rx="12.5" ry="12.5" style="stroke: #A80036; stroke-width: 1.5;"
			width="209" x="10" y="200.8281" />
		<text fill="#000000" font-family="sans-serif" font-size="12"
			lengthAdjust="spacingAndGlyphs" textLength="0" x="24" y="221.9668" />
		<text fill="#000000" font-family="sans-serif" font-size="12"
			lengthAdjust="spacingAndGlyphs" textLength="139" x="36" y="235.9355">head.next =
			newNode</text>
		<text fill="#000000" font-family="sans-serif" font-size="12"
			lengthAdjust="spacingAndGlyphs" textLength="173" x="36" y="249.9043">newNode.previouse
			= head</text>
		<text fill="#000000" font-family="sans-serif" font-size="12"
			lengthAdjust="spacingAndGlyphs" textLength="139" x="36" y="263.873">newNode.next
			= head</text>
		<text fill="#000000" font-family="sans-serif" font-size="12"
			lengthAdjust="spacingAndGlyphs" textLength="165" x="36" y="277.8418">head.previous
			= newNode</text>
		<text fill="#000000" font-family="sans-serif" font-size="12"
			lengthAdjust="spacingAndGlyphs" textLength="0" x="24" y="291.8105" />
		<rect fill="#FEFECE" filter="url(#fp9otg77lof83)" height="33.9688"
			rx="12.5" ry="12.5" style="stroke: #A80036; stroke-width: 1.5;"
			width="147" x="273" y="200.8281" />
		<text fill="#000000" font-family="sans-serif" font-size="12"
			lengthAdjust="spacingAndGlyphs" textLength="127" x="283" y="221.9668">current =
			head.next</text>
		<rect fill="#FEFECE" filter="url(#fp9otg77lof83)" height="33.9688"
			rx="12.5" ry="12.5" style="stroke: #A80036; stroke-width: 1.5;"
			width="161" x="266" y="324.6406" />
		<text fill="#000000" font-family="sans-serif" font-size="12"
			lengthAdjust="spacingAndGlyphs" textLength="141" x="276" y="345.7793">current =
			current.next</text>
		<polygon fill="#FEFECE" filter="url(#fp9otg77lof83)"
			points="346.5,269.7969,358.5,281.7969,346.5,293.7969,334.5,281.7969,346.5,269.7969"
			style="stroke: #A80036; stroke-width: 1.5;" />
		<polygon fill="#FEFECE" filter="url(#fp9otg77lof83)"
			points="277.5,378.6094,415.5,378.6094,427.5,390.6094,415.5,402.6094,277.5,402.6094,265.5,390.6094,277.5,378.6094"
			style="stroke: #A80036; stroke-width: 1.5;" />
		<text fill="#000000" font-family="sans-serif" font-size="11"
			lengthAdjust="spacingAndGlyphs" textLength="138" x="277.5" y="394.4175">Is
			current.next = head ?</text>
		<rect fill="#FEFECE" filter="url(#fp9otg77lof83)" height="103.8125"
			rx="12.5" ry="12.5" style="stroke: #A80036; stroke-width: 1.5;"
			width="215" x="239" y="422.6094" />
		<text fill="#000000" font-family="sans-serif" font-size="12"
			lengthAdjust="spacingAndGlyphs" textLength="0" x="253" y="443.748" />
		<text fill="#000000" font-family="sans-serif" font-size="12"
			lengthAdjust="spacingAndGlyphs" textLength="153" x="265" y="457.7168">current.next
			= newNode</text>
		<text fill="#000000" font-family="sans-serif" font-size="12"
			lengthAdjust="spacingAndGlyphs" textLength="179" x="265" y="471.6855">newNode.previous
			= current</text>
		<text fill="#000000" font-family="sans-serif" font-size="12"
			lengthAdjust="spacingAndGlyphs" textLength="139" x="265" y="485.6543">newNode.next
			= head</text>
		<text fill="#000000" font-family="sans-serif" font-size="12"
			lengthAdjust="spacingAndGlyphs" textLength="165" x="265" y="499.623">head.previous
			= newNode</text>
		<text fill="#000000" font-family="sans-serif" font-size="12"
			lengthAdjust="spacingAndGlyphs" textLength="0" x="253" y="513.5918" />
		<polygon fill="#FEFECE" filter="url(#fp9otg77lof83)"
			points="230.5,532.4219,242.5,544.4219,230.5,556.4219,218.5,544.4219,230.5,532.4219"
			style="stroke: #A80036; stroke-width: 1.5;" />
		<ellipse cx="230.5" cy="586.4219" fill="none" filter="url(#fp9otg77lof83)"
			rx="10" ry="10" style="stroke: #000000; stroke-width: 1.0;" />
		<ellipse cx="231" cy="586.9219" fill="#000000" filter="url(#fp9otg77lof83)"
			rx="6" ry="6" style="stroke: none; stroke-width: 1.0;" />
		<line style="stroke: #A80036; stroke-width: 1.5;" x1="230.5" x2="230.5"
			y1="92.8594" y2="112.8594" />
		<polygon fill="#A80036"
			points="226.5,102.8594,230.5,112.8594,234.5,102.8594,230.5,106.8594"
			style="stroke: #A80036; stroke-width: 1.0;" />
		<line style="stroke: #A80036; stroke-width: 1.5;" x1="346.5" x2="346.5"
			y1="293.7969" y2="324.6406" />
		<polygon fill="#A80036"
			points="342.5,314.6406,346.5,324.6406,350.5,314.6406,346.5,318.6406"
			style="stroke: #A80036; stroke-width: 1.0;" />
		<line style="stroke: #A80036; stroke-width: 1.5;" x1="427.5" x2="439.5"
			y1="390.6094" y2="390.6094" />
		<polygon fill="#A80036"
			points="435.5,351.625,439.5,341.625,443.5,351.625,439.5,347.625"
			style="stroke: #A80036; stroke-width: 1.5;" />
		<line style="stroke: #A80036; stroke-width: 1.5;" x1="439.5" x2="439.5"
			y1="281.7969" y2="390.6094" />
		<line style="stroke: #A80036; stroke-width: 1.5;" x1="439.5" x2="358.5"
			y1="281.7969" y2="281.7969" />
		<polygon fill="#A80036"
			points="368.5,277.7969,358.5,281.7969,368.5,285.7969,364.5,281.7969"
			style="stroke: #A80036; stroke-width: 1.0;" />
		<line style="stroke: #A80036; stroke-width: 1.5;" x1="346.5" x2="346.5"
			y1="358.6094" y2="378.6094" />
		<polygon fill="#A80036"
			points="342.5,368.6094,346.5,378.6094,350.5,368.6094,346.5,372.6094"
			style="stroke: #A80036; stroke-width: 1.0;" />
		<line style="stroke: #A80036; stroke-width: 1.5;" x1="346.5" x2="346.5"
			y1="234.7969" y2="269.7969" />
		<polygon fill="#A80036"
			points="342.5,259.7969,346.5,269.7969,350.5,259.7969,346.5,263.7969"
			style="stroke: #A80036; stroke-width: 1.0;" />
		<line style="stroke: #A80036; stroke-width: 1.5;" x1="346.5" x2="346.5"
			y1="402.6094" y2="422.6094" />
		<polygon fill="#A80036"
			points="342.5,412.6094,346.5,422.6094,350.5,412.6094,346.5,416.6094"
			style="stroke: #A80036; stroke-width: 1.0;" />
		<line style="stroke: #A80036; stroke-width: 1.5;" x1="180.5" x2="114.5"
			y1="178.8281" y2="178.8281" />
		<line style="stroke: #A80036; stroke-width: 1.5;" x1="114.5" x2="114.5"
			y1="178.8281" y2="200.8281" />
		<polygon fill="#A80036"
			points="110.5,190.8281,114.5,200.8281,118.5,190.8281,114.5,194.8281"
			style="stroke: #A80036; stroke-width: 1.0;" />
		<line style="stroke: #A80036; stroke-width: 1.5;" x1="280.5" x2="346.5"
			y1="178.8281" y2="178.8281" />
		<line style="stroke: #A80036; stroke-width: 1.5;" x1="346.5" x2="346.5"
			y1="178.8281" y2="200.8281" />
		<polygon fill="#A80036"
			points="342.5,190.8281,346.5,200.8281,350.5,190.8281,346.5,194.8281"
			style="stroke: #A80036; stroke-width: 1.0;" />
		<line style="stroke: #A80036; stroke-width: 1.5;" x1="114.5" x2="114.5"
			y1="304.6406" y2="544.4219" />
		<line style="stroke: #A80036; stroke-width: 1.5;" x1="114.5" x2="218.5"
			y1="544.4219" y2="544.4219" />
		<polygon fill="#A80036"
			points="208.5,540.4219,218.5,544.4219,208.5,548.4219,212.5,544.4219"
			style="stroke: #A80036; stroke-width: 1.0;" />
		<line style="stroke: #A80036; stroke-width: 1.5;" x1="346.5" x2="346.5"
			y1="526.4219" y2="544.4219" />
		<line style="stroke: #A80036; stroke-width: 1.5;" x1="346.5" x2="242.5"
			y1="544.4219" y2="544.4219" />
		<polygon fill="#A80036"
			points="252.5,540.4219,242.5,544.4219,252.5,548.4219,248.5,544.4219"
			style="stroke: #A80036; stroke-width: 1.0;" />
		<line style="stroke: #A80036; stroke-width: 1.5;" x1="230.5" x2="230.5"
			y1="146.8281" y2="166.8281" />
		<polygon fill="#A80036"
			points="226.5,156.8281,230.5,166.8281,234.5,156.8281,230.5,160.8281"
			style="stroke: #A80036; stroke-width: 1.0;" />
		<line style="stroke: #A80036; stroke-width: 1.5;" x1="230.5" x2="230.5"
			y1="556.4219" y2="576.4219" />
		<polygon fill="#A80036"
			points="226.5,566.4219,230.5,576.4219,234.5,566.4219,230.5,570.4219"
			style="stroke: #A80036; stroke-width: 1.0;" />
<!--
@startuml
title Circular Doubly Linked List \n(Insert at End)\n

start

:Create a new node **(newNode)**;

if (Is list empty?) then (yes)
    :
        head.next = newNode
        newNode.previouse = head
        newNode.next = head
        head.previous = newNode
    ;
else (no)
    :current = head.next;
    repeat
        :current = current.next;
    repeat while(Is current.next = head ?)
    :
        current.next = newNode
        newNode.previous = current
        newNode.next = head
        head.previous = newNode
    ;
    
endif;

stop
@enduml

PlantUML version 1.2019.00(Sun Jan 13 15:46:42 UTC 2019)
(GPL source distribution)
Java Runtime: Java(TM) SE Runtime Environment
JVM: Java HotSpot(TM) 64-Bit Server VM
Java Version: 1.7.0_25-b15
Operating System: Linux
Default Encoding: UTF-8
Language: en
Country: US
--></g></svg>